<svg xmlns="http://www.w3.org/2000/svg" viewBox="0 0 128 128" fill="none">
  <defs>
    <linearGradient id="neon" x1="0%" y1="0%" x2="100%" y2="0%">
      <stop offset="0%" stop-color="#36e3ff"/>
      <stop offset="100%" stop-color="#7c5cff"/>
    </linearGradient>
  </defs>

  <!-- Rounded square background -->
  <rect x="8" y="8" width="112" height="112" rx="28" fill="#0f1220"/>

  <!-- Chat bubble -->
  <path
    d="M32 36
       C32 31 36 28 40 28
       L88 28
       C92 28 96 31 96 36
       L96 72
       C96 76 92 80 88 80
       L56 80
       L40 96
       L40 80
       C36 80 32 76 32 72
       Z"
    fill="url(#neon)"
  />

  <!-- Ping indicator -->
  <circle cx="88" cy="36" r="16" fill="#ff5fd4"/>
  <circle cx="88" cy="36" r="6" fill="#0b0d14"/>

  <!-- Chat dots -->
  <g fill="#0b0d14">
    <circle cx="52" cy="54" r="6"/>
    <circle cx="68" cy="54" r="6"/>
    <circle cx="84" cy="54" r="6"/>
  </g>
</svg>
